<?xml version="1.0" ?><!DOCTYPE svg  PUBLIC '-//W3C//DTD SVG 1.1//EN'  'http://www.w3.org/Graphics/SVG/1.1/DTD/svg11.dtd'><svg enable-background="new 0 0 24 24" height="24px" id="Layer_1" version="1.1" viewBox="0 0 24 24" width="24px" xml:space="preserve" xmlns="http://www.w3.org/2000/svg" xmlns:xlink="http://www.w3.org/1999/xlink"><g><path d="M22.8,12c0.7-0.4,1.2-1.2,1-2.1c-0.2-0.8-0.9-1.5-1.7-1.6c0.5-0.6,0.7-1.6,0.2-2.3c-0.4-0.7-1.3-1.1-2.1-0.9   c0.3-0.8,0.1-1.7-0.6-2.3c-0.7-0.6-1.6-0.6-2.3-0.2c0-0.8-0.5-1.6-1.3-1.9c-0.8-0.3-1.7,0-2.2,0.6C13.6,0.6,12.9,0,12,0   c-0.9,0-1.6,0.6-1.9,1.3C9.6,0.7,8.7,0.4,7.9,0.7C7.1,1,6.6,1.8,6.6,2.6C5.9,2.2,5,2.2,4.3,2.8C3.6,3.4,3.4,4.3,3.7,5   C2.9,4.9,2,5.2,1.6,6C1.2,6.8,1.3,7.7,1.8,8.3C1,8.4,0.3,9.1,0.2,9.9c-0.2,0.9,0.3,1.7,1,2.1c-0.7,0.4-1.1,1.2-1,2.1   c0.2,0.9,0.8,1.5,1.6,1.6c-0.5,0.6-0.7,1.5-0.2,2.3C2.2,19,4,19,4,19h4v4c0,0.6,0.4,1,1,1h1c0.6,0,1-0.4,1-1v-3.1   c0.3,0.1,0.7,0.1,1,0.1s0.7,0,1-0.1V23c0,0.6,0.4,1,1,1h1c0.6,0,1-0.4,1-1v-4h4c0,0,1.8,0.1,2.4-1c0.4-0.7,0.3-1.7-0.2-2.3   c0.8-0.1,1.5-0.8,1.7-1.6C24,13.2,23.5,12.4,22.8,12z M10,23H9v-3.8c0.3,0.2,0.7,0.3,1,0.5V23z M14,23v-3.3c0.3-0.1,0.7-0.3,1-0.5   V23H14z M22.8,13.9c-0.1,0.5-0.6,0.9-1.2,0.8l-0.1,0.8l-0.4,0.7c0.9,0.5,0.6,0.9,0.4,1.4C21.2,18,20,18,20,18h-3.5   c1-1.1,1.5-2.5,1.5-4c1.7,0,3-1.3,3-3s-1.3-3-3-3h-2v2h2c0.6,0,1,0.4,1,1s-0.4,1-1,1h-2v2c0,2.2-1.8,4-4,4s-4-1.8-4-4v-2H6   c-0.6,0-1-0.4-1-1s0.4-1,1-1h2V8H6c-1.7,0-3,1.3-3,3s1.3,3,3,3c0,1.5,0.6,2.9,1.5,4H4c0,0-1.2,0-1.5-0.5c-0.3-0.5-0.1-1.1,0.4-1.4   l-0.4-0.7l-0.1-0.8c-0.5,0.1-1.1-0.3-1.2-0.8c-0.1-0.5,0.3-1.1,0.8-1.2L1.8,12L2,11.2c-0.5-0.1-0.9-0.6-0.8-1.2   c0.1-0.5,0.6-0.9,1.2-0.8l0.1-0.8l0.4-0.7C2.4,7.6,2.2,7,2.5,6.5C2.8,6,3.4,5.9,3.8,6.1l0.4-0.7L4.8,5C4.5,4.6,4.5,3.9,4.9,3.6   C5.4,3.2,6,3.3,6.3,3.7l0.6-0.5l0.7-0.3C7.5,2.4,7.7,1.9,8.2,1.7s1.1,0.1,1.3,0.6L10.2,2H11c0-0.6,0.4-1,1-1s1,0.4,1,1h0.8l0.7,0.3   c0.3-0.9,0.8-0.8,1.3-0.6c0.5,0.2,0.8,0.8,0.6,1.3l0.7,0.3l0.6,0.5c0.6-0.8,1-0.5,1.4-0.1c0.4,0.4,0.5,1,0.1,1.4l0.6,0.5l0.4,0.7   C21,5.6,21.2,6,21.5,6.5c0.3,0.5,0.1,1.1-0.4,1.4l0.4,0.7l0.1,0.7c1-0.2,1.1,0.3,1.2,0.8c0.1,0.5-0.3,1.1-0.8,1.2l0.1,0.8L22,12.8   C23,12.9,22.9,13.4,22.8,13.9z"/><circle cx="14" cy="10" r="1"/><circle cx="10" cy="10" r="1"/></g></svg>