<?xml version="1.0" ?><!DOCTYPE svg  PUBLIC '-//W3C//DTD SVG 1.1//EN'  'http://www.w3.org/Graphics/SVG/1.1/DTD/svg11.dtd'><svg height="512pt" version="1.1" viewBox="0,0,512,512" width="512pt" xmlns="http://www.w3.org/2000/svg" xmlns:inkpad="http://taptrix.com/inkpad/svg_extensions" xmlns:xlink="http://www.w3.org/1999/xlink"><defs/><g id="Layer" visibility="hidden"><path d="M-0.827082-1.30128L512.173-1.30128L512.173+510.699L-0.827082+510.699L-0.827082-1.30128Z" fill="#000000" opacity="0.0523256"/></g><g id="Layer_2"><path d="M13.7042+3.75982L497.642+3.75982C503.148+3.75982+507.612+8.22363+507.612+13.73L507.612+497.667C507.612+503.174+503.148+507.638+497.642+507.638L13.7042+507.638C8.19783+507.638+3.73402+503.174+3.73402+497.667L3.73402+13.73C3.73402+8.22363+8.19783+3.75982+13.7042+3.75982Z" fill="none" opacity="1" stroke="#000000" stroke-linejoin="round" stroke-width="5"/></g><g id="Layer_3"><path d="M13.7188+3.75C8.21236+3.75+3.71875+8.21237+3.71875+13.7188L3.71875+65.4062L507.625+65.4062L507.625+13.7188C507.625+8.21237+503.163+3.75+497.656+3.75L13.7188+3.75ZM52.7188+13.9062C64.1336+13.9062+73.4062+23.179+73.4062+34.5938C73.4062+46.0085+64.1335+55.25+52.7188+55.25C41.304+55.25+32.0625+46.0086+32.0625+34.5938C32.0625+23.179+41.304+13.9062+52.7188+13.9062ZM114.062+13.9062C125.477+13.9062+134.719+23.179+134.719+34.5938C134.719+46.0085+125.477+55.25+114.062+55.25C102.648+55.25+93.375+46.0086+93.375+34.5938C93.375+23.179+102.648+13.9062+114.062+13.9062ZM174.875+13.9062C186.29+13.9062+195.562+23.179+195.562+34.5938C195.562+46.0085+186.29+55.25+174.875+55.25C163.46+55.25+154.219+46.0086+154.219+34.5938C154.219+23.179+163.46+13.9062+174.875+13.9062Z" fill="#000000" opacity="1" stroke="#000000" stroke-linejoin="round" stroke-width="5"/></g><g id="Layer_4"><g opacity="1"><path d="M96+448L240+304L96+448Z" fill="#ffffff" opacity="1" stroke="#000000" stroke-linecap="square" stroke-width="5"/><path d="M96+352L96+448" fill="#ffffff" opacity="1" stroke="#000000" stroke-linecap="square" stroke-width="5"/><path d="M192+448L96+448" fill="#ffffff" opacity="1" stroke="#000000" stroke-linecap="square" stroke-width="5"/></g><g opacity="1"><path d="M416+128L272+272L416+128Z" fill="#ffffff" opacity="1" stroke="#000000" stroke-linecap="square" stroke-width="5"/><path d="M416+224L416+128" fill="#ffffff" opacity="1" stroke="#000000" stroke-linecap="square" stroke-width="5"/><path d="M320+128L416+128" fill="#ffffff" opacity="1" stroke="#000000" stroke-linecap="square" stroke-width="5"/></g></g></svg>